<?xml version="1.0" standalone="no"?>
<!DOCTYPE svg PUBLIC "-//W3C//DTD SVG 20010904//EN"
 "http://www.w3.org/TR/2001/REC-SVG-20010904/DTD/svg10.dtd">
<svg version="1.0" xmlns="http://www.w3.org/2000/svg"
 width="512.000000pt" height="512.000000pt" viewBox="0 0 512.000000 512.000000"
 preserveAspectRatio="xMidYMid meet">
<metadata>
Created by potrace 1.14, written by Peter Selinger 2001-2017
</metadata>
<g transform="translate(0.000000,512.000000) scale(0.100000,-0.100000)"
fill="#000000" stroke="none">
<path d="M2854 4819 c-337 -30 -700 -175 -984 -394 -198 -153 -391 -384 -496
-595 -130 -262 -182 -491 -171 -760 15 -386 159 -724 461 -1085 l40 -46 -601
-602 c-331 -331 -603 -609 -605 -617 -5 -14 36 -50 57 -50 6 0 3 5 -5 10 -8 5
-10 10 -4 10 18 0 24 -13 13 -27 -11 -13 0 -19 26 -13 6 1 7 -2 3 -5 -9 -10 9
-45 23 -45 6 0 8 4 5 8 -3 5 1 9 8 9 7 0 12 -10 10 -23 -2 -18 2 -22 19 -18
12 2 290 272 618 600 l597 597 88 -73 c186 -154 416 -285 614 -351 157 -52
260 -70 440 -76 139 -4 184 -2 286 15 337 58 621 205 883 457 491 473 693
1177 514 1795 -175 607 -726 1123 -1335 1250 -174 36 -327 45 -504 29z m391
-256 c110 -18 213 -45 297 -79 86 -35 258 -133 343 -196 148 -110 375 -360
359 -397 -3 -9 -6 -23 -6 -31 0 -75 -34 -241 -65 -313 -15 -34 -18 -36 -32
-23 -13 14 -12 22 12 73 28 61 47 143 47 196 l-1 32 -29 -35 c-17 -19 -41 -58
-55 -87 -26 -54 -45 -61 -65 -23 -11 21 9 77 46 125 21 28 54 104 54 126 0 5
-7 9 -15 9 -8 0 -23 9 -32 20 -10 11 -27 20 -38 20 -29 0 -68 -38 -60 -59 20
-51 18 -72 -10 -101 -24 -25 -35 -29 -69 -26 -31 3 -41 8 -41 21 0 28 -29 41
-57 27 -13 -7 -33 -13 -45 -15 -39 -5 -55 -27 -48 -65 5 -25 2 -39 -11 -53
-29 -32 -44 -24 -44 24 0 61 -9 87 -31 87 -21 0 -24 11 -8 27 16 16 4 30 -54
63 -29 16 -58 38 -65 50 -16 26 -36 25 -72 -2 -34 -25 -37 -23 -46 20 -6 31
-6 32 29 32 26 0 39 6 47 20 15 28 -5 34 -78 26 -47 -5 -62 -12 -85 -37 -16
-17 -26 -37 -23 -45 3 -8 9 -21 13 -30 5 -13 2 -15 -18 -9 -13 4 -39 15 -57
26 -37 21 -60 16 -73 -18 -17 -47 -11 -62 38 -86 l46 -24 -47 -5 c-29 -4 -56
-14 -71 -28 l-23 -22 -41 40 c-23 22 -41 45 -41 52 0 8 -7 10 -22 5 -41 -13
-87 -17 -113 -11 -21 5 -25 12 -25 41 0 18 -4 36 -10 40 -5 3 -7 12 -3 20 3 9
-1 15 -10 15 -8 0 -17 -10 -20 -22 -6 -21 -7 -21 -25 -5 -10 9 -24 17 -30 17
-18 0 -29 32 -23 64 3 16 4 52 3 81 -4 50 -6 53 -45 75 -23 13 -57 37 -75 54
-27 26 -34 28 -42 16 -5 -8 -10 -20 -10 -25 0 -6 -29 -25 -65 -43 -48 -23 -74
-44 -97 -77 -18 -25 -39 -45 -49 -45 -9 0 -35 20 -58 45 -34 37 -40 50 -35 72
4 16 7 30 6 33 0 40 -27 47 -56 15 -13 -14 -28 -25 -33 -25 -5 0 -21 -10 -35
-22 -21 -19 -29 -42 -46 -143 -12 -66 -24 -145 -28 -175 -3 -30 -11 -66 -16
-80 -9 -25 -10 -25 -25 -5 -12 16 -13 37 -9 100 9 107 -10 171 -65 222 l-39
37 37 38 c71 72 314 225 449 281 266 111 560 146 839 100z m-1353 -496 c19 17
20 17 39 -7 37 -47 49 -78 55 -147 6 -64 5 -71 -20 -100 -31 -37 -32 -41 -5
-69 20 -22 21 -27 10 -126 -10 -89 -9 -110 5 -155 12 -37 22 -53 34 -53 27 0
28 7 9 63 -19 58 -31 210 -18 245 12 31 52 29 78 -4 26 -33 27 -88 6 -229 -8
-55 -18 -145 -21 -200 -8 -137 -7 -136 -57 -88 -77 75 -160 98 -252 69 -53
-17 -65 -11 -65 31 0 17 4 20 22 15 20 -5 21 -3 15 44 -7 61 -35 154 -46 154
-4 0 -15 -26 -25 -57 -11 -33 -30 -68 -47 -84 -22 -20 -31 -40 -35 -76 -8 -66
-32 -139 -51 -154 -13 -11 -19 -9 -39 14 -13 15 -28 27 -33 27 -27 0 36 348
68 383 4 4 22 -9 41 -28 37 -39 51 -43 70 -20 7 8 21 15 32 15 12 0 18 5 14
13 -2 6 -12 37 -22 67 -23 75 -64 107 -64 50 0 -31 -16 -41 -26 -16 -6 17 73
176 87 176 13 0 22 -25 23 -64 1 -27 4 -31 26 -29 54 4 71 -6 97 -60 14 -29
32 -65 41 -82 11 -20 16 -58 16 -117 1 -65 4 -84 13 -77 6 6 14 27 18 47 6 38
-3 72 -50 197 -20 53 -24 74 -16 87 17 27 13 36 -19 53 -32 17 -73 73 -83 116
-5 20 4 38 49 95 69 87 85 100 97 78 8 -14 11 -14 29 3z m418 -2 c17 -21 -10
-30 -47 -17 -18 7 -21 11 -10 11 9 1 17 6 17 11 0 15 26 12 40 -5z m200 -94
c9 -35 6 -71 -7 -71 -2 0 -13 4 -23 10 -13 7 -41 3 -101 -15 -46 -13 -84 -23
-85 -22 -1 1 -4 11 -6 21 -2 17 9 23 72 43 41 12 83 23 92 23 10 0 20 10 24
25 9 36 22 31 34 -14z m180 -3 c0 -6 10 -31 21 -55 12 -24 19 -47 16 -50 -9
-8 -115 45 -125 64 -7 11 -5 21 5 31 12 12 16 12 32 -2 17 -16 19 -16 24 4 5
21 27 28 27 8z m-170 -168 c-11 -22 -27 -69 -36 -106 -17 -77 -8 -121 32 -153
20 -16 22 -20 9 -31 -11 -10 -20 -8 -41 9 -14 11 -31 18 -36 15 -5 -3 -25 -3
-44 0 -29 6 -34 11 -34 34 0 15 -9 59 -20 97 -11 38 -20 75 -20 81 0 6 38 23
85 38 50 16 91 35 97 46 22 35 28 9 8 -30z m950 -16 c0 -6 10 -9 24 -7 26 5
66 -36 66 -67 0 -10 9 -20 20 -23 27 -7 26 -42 -4 -78 -13 -15 -26 -34 -28
-40 -4 -13 -63 -17 -75 -6 -3 4 -1 18 6 31 12 21 10 29 -13 69 -24 40 -25 48
-14 68 10 17 10 23 1 26 -7 3 -13 21 -13 41 1 35 2 36 15 18 8 -11 15 -25 15
-32z m-818 -24 l22 -20 -27 -28 c-15 -15 -27 -33 -27 -40 0 -7 -9 -12 -19 -12
-21 0 -20 8 9 88 14 38 15 38 42 12z m1672 4 c20 -8 22 -72 2 -80 -19 -7 -76
23 -76 41 0 32 39 52 74 39z m-1400 -64 l36 -39 -30 -16 c-23 -12 -30 -22 -30
-44 0 -20 -7 -31 -26 -40 -14 -6 -29 -9 -32 -7 -4 2 -7 41 -6 86 0 59 4 84 15
91 24 15 34 10 73 -31z m356 5 c34 -17 37 -27 15 -45 -13 -11 -21 -9 -46 9
-18 13 -39 21 -50 18 -22 -6 -25 3 -7 21 16 16 53 15 88 -3z m-1040 -106 c6
-22 13 -46 16 -53 3 -8 -16 -25 -50 -45 -31 -17 -59 -31 -62 -31 -4 0 -4 16
-1 36 6 37 62 134 78 134 4 0 13 -18 19 -41z m435 -58 c-3 -9 -23 -36 -45 -61
-33 -38 -42 -43 -57 -34 -10 7 -18 23 -18 39 0 23 6 30 30 38 37 12 75 45 76
66 0 10 4 6 10 -8 5 -13 7 -31 4 -40z m1441 -63 c13 -13 24 -30 24 -39 0 -8
19 -76 43 -150 37 -114 47 -136 70 -147 27 -13 36 -45 17 -57 -5 -3 -22 7 -36
22 -24 26 -32 28 -100 29 -56 0 -78 5 -93 19 -16 14 -18 22 -10 38 11 20 9 23
-33 48 -15 8 -18 6 -18 -11 0 -11 4 -20 9 -20 15 0 21 -28 10 -58 -7 -20 -5
-39 6 -71 20 -57 19 -66 -7 -91 -34 -31 -43 -25 -45 33 -2 89 -13 129 -32 121
-46 -19 -59 -17 -63 12 -3 29 -3 29 -70 28 -60 -2 -68 0 -68 16 0 11 5 22 10
25 6 4 10 14 9 23 -3 34 1 43 26 52 30 11 32 26 6 40 -31 16 -41 12 -41 -15 0
-33 -9 -32 -44 6 -20 20 -32 27 -39 20 -7 -7 -6 -15 1 -24 26 -31 -81 -97
-158 -97 -25 0 -26 2 -28 77 -2 85 3 113 22 113 7 0 25 9 38 20 14 10 28 17
31 14 3 -4 3 -29 0 -56 -4 -36 -2 -52 7 -58 20 -12 46 5 58 39 7 19 19 31 33
33 12 2 25 9 27 17 3 10 -1 12 -17 8 -27 -7 -38 15 -24 46 6 12 15 34 21 49
11 27 11 27 48 12 40 -17 82 -15 175 7 48 11 66 10 114 -1 54 -13 58 -13 68 6
10 17 12 15 20 -18 5 -21 20 -48 33 -60z m-726 42 c0 -11 -4 -20 -8 -20 -15 0
-44 38 -37 49 10 17 45 -6 45 -29z m-122 -12 c-6 -18 -22 -20 -43 -3 -19 14
-18 14 13 15 22 0 32 -4 30 -12z m92 -36 c0 -4 -5 -13 -12 -20 -7 -7 -16 -12
-20 -12 -13 0 -9 28 5 33 19 8 27 8 27 -1z m90 -17 c0 -18 -5 -25 -20 -25 -20
0 -28 28 -13 43 15 16 33 6 33 -18z m-719 -87 c-8 -49 -19 -88 -23 -88 -4 0
-19 18 -34 39 -20 31 -23 43 -15 59 11 20 81 86 86 80 1 -2 -5 -42 -14 -90z
m369 -100 c0 -45 21 -97 40 -103 40 -13 9 -75 -36 -75 -14 0 -30 -10 -39 -24
-11 -17 -22 -22 -41 -18 -28 5 -59 55 -49 80 4 10 8 30 11 46 4 32 39 76 61
76 7 0 18 9 25 20 17 26 28 25 28 -2z m-780 -135 c0 -43 3 -88 6 -100 8 -30
-10 -30 -41 2 -30 29 -35 84 -8 81 26 -2 28 39 4 63 -28 28 -27 31 9 31 l30 0
0 -77z m150 -23 c0 -40 -4 -70 -10 -70 -6 0 -10 30 -10 70 0 40 4 70 10 70 6
0 10 -30 10 -70z m2043 -85 c-6 -106 -12 -145 -23 -145 -5 0 -23 12 -39 28
-25 22 -31 38 -36 90 l-7 62 27 0 c22 0 30 8 47 48 20 44 22 46 29 22 4 -14 5
-61 2 -105z m-1135 67 c4 -49 -11 -55 -27 -11 -16 45 -14 61 7 57 12 -2 18
-15 20 -46z m247 -92 c23 0 25 -4 25 -45 0 -46 -7 -54 -28 -33 -9 9 -12 8 -12
-5 0 -12 -8 -17 -28 -17 -55 0 -87 112 -40 144 20 14 23 14 40 -14 12 -21 26
-30 43 -30z m-1497 -42 c-3 -103 -20 -128 -36 -54 -14 65 -1 146 24 146 12 0
14 -15 12 -92z m-660 6 l-12 -29 -4 33 c-4 38 21 81 26 45 2 -10 -3 -33 -10
-49z m381 -1 c1 -17 6 -35 12 -38 5 -4 15 -18 20 -32 5 -14 18 -27 28 -30 19
-5 19 -6 1 -46 -12 -25 -16 -52 -13 -74 3 -18 3 -33 0 -33 -20 0 -37 15 -37
32 0 16 -5 19 -21 15 -30 -8 -89 47 -89 83 0 54 12 90 30 90 27 0 53 36 46 63
-3 13 -2 27 1 31 10 10 21 -22 22 -61z m1491 26 c0 -12 -49 -59 -61 -59 -19 0
-7 36 18 56 27 22 43 23 43 3z m-237 -4 c17 -12 18 -18 7 -50 -6 -20 -9 -42
-7 -49 10 -27 -7 -26 -35 1 -32 30 -36 67 -11 95 19 21 22 22 46 3z m-1157
-22 c-10 -10 -19 5 -10 18 6 11 8 11 12 0 2 -7 1 -15 -2 -18z m1049 -61 c-2
-3 -17 0 -32 6 -15 6 -41 13 -57 17 l-29 6 24 25 23 24 38 -37 c21 -20 36 -39
33 -41z m-1355 13 c0 -14 -2 -25 -4 -25 -2 0 -6 11 -8 25 -3 14 -1 25 3 25 5
0 9 -11 9 -25z m796 -69 c-6 -48 -13 -59 -53 -97 -52 -48 -59 -43 -48 29 6 38
15 55 52 90 25 24 47 41 50 38 3 -3 2 -30 -1 -60z m91 30 c-4 -9 -11 -16 -18
-16 -6 0 -8 7 -5 16 3 9 6 21 6 27 0 8 3 8 11 0 7 -7 9 -19 6 -27z m679 -12
c-3 -20 -25 -34 -43 -27 -11 4 -11 9 3 24 21 23 43 25 40 3z m184 6 c0 -5 10
-9 22 -7 18 2 23 -5 31 -42 7 -36 6 -46 -7 -53 -8 -5 -13 -15 -9 -23 3 -9 1
-21 -5 -28 -10 -12 -12 -17 -12 -39 0 -7 -5 -5 -11 5 -10 17 -12 17 -29 -3
l-18 -21 -22 36 c-25 40 -20 57 8 32 10 -10 24 -17 30 -17 26 0 3 113 -25 129
-14 8 -15 12 -4 25 15 18 51 22 51 6z m-528 -82 c-32 -34 -65 -36 -79 -5 -8
16 -7 29 4 48 l15 26 43 -21 43 -21 -26 -27z m1591 30 c18 -13 33 -23 35 -24
1 -1 0 -8 -4 -17 -5 -15 -9 -15 -41 -2 -49 21 -56 19 -51 -10 7 -33 -8 -42
-33 -19 -27 24 -24 41 11 49 16 4 32 15 35 26 8 24 9 24 48 -3z m-2842 -39
c12 -23 24 -97 13 -87 -3 4 -24 0 -45 -7 -22 -8 -37 -10 -34 -5 3 6 1 10 -4
10 -20 0 -12 63 11 87 27 29 44 29 59 2z m1417 -5 c23 -16 30 -54 10 -54 -19
0 -48 31 -48 52 0 22 9 23 38 2z m-864 -21 c-17 -18 -27 -13 -18 10 3 9 12 13
20 10 11 -4 11 -7 -2 -20z m505 -11 c11 -38 2 -50 -61 -87 -34 -19 -48 -23
-48 -13 0 15 67 119 84 130 13 9 15 7 25 -30z m1651 -19 c0 -4 -9 -16 -19 -28
-11 -11 -34 -36 -51 -55 -24 -26 -33 -31 -40 -20 -10 16 -2 79 13 98 10 13 97
17 97 5z m-2129 -67 c7 -15 8 -30 2 -41 -8 -13 -12 -9 -25 24 -14 35 -14 41
-2 41 8 0 19 -11 25 -24z m819 15 c0 -6 -4 -13 -10 -16 -5 -3 -10 1 -10 9 0 9
5 16 10 16 6 0 10 -4 10 -9z m-661 -140 c8 -5 10 -14 6 -21 -10 -17 13 -30 53
-30 29 0 32 3 32 31 0 27 3 30 27 27 25 -3 29 -8 36 -58 16 -114 -24 -346 -78
-451 -16 -30 -30 -35 -55 -19 -13 8 -12 15 4 57 10 26 26 76 36 111 18 59 18
63 2 69 -9 3 -42 16 -74 28 l-56 23 -52 -64 c-61 -76 -82 -89 -110 -74 -11 6
-20 13 -20 15 0 3 25 33 56 66 70 76 145 229 112 229 -7 0 -19 4 -27 9 -21 13
3 41 29 34 12 -3 22 1 26 11 7 17 31 21 53 7z m-384 -82 c9 -17 14 -37 11 -45
-7 -18 -36 -18 -36 0 0 7 -3 28 -6 45 -8 41 10 41 31 0z m1125 -66 c8 -7 27
-15 43 -18 17 -4 27 -13 27 -25 0 -27 -10 -30 -53 -15 -69 24 -105 73 -75 103
9 9 15 6 27 -11 8 -12 22 -27 31 -34z m-393 -40 c-5 -27 -5 -27 64 -12 136 29
227 -77 156 -182 -20 -29 -88 -78 -109 -79 -18 0 -7 49 11 55 29 9 81 72 81
99 0 60 -110 83 -194 41 -35 -18 -44 -30 -73 -100 -17 -44 -34 -84 -36 -90 -3
-6 -12 -3 -21 6 -15 14 -15 19 -1 52 21 50 18 57 -9 23 -24 -28 -24 -28 -35
-7 -14 25 9 61 64 101 19 14 35 28 35 33 0 4 -23 7 -51 7 -43 0 -50 3 -45 16
3 9 6 20 6 25 0 5 21 9 46 9 36 0 50 5 67 24 17 19 25 22 35 13 8 -6 12 -21 9
-34z m923 18 c5 -11 28 -27 50 -37 30 -14 40 -23 40 -42 0 -20 -4 -22 -22 -16
-69 21 -113 61 -103 93 8 26 21 27 35 2z m-43 -62 c18 -12 44 -40 58 -63 55
-94 16 -186 -78 -186 -56 0 -98 29 -81 56 14 24 34 30 34 11 0 -43 95 -24 107
21 8 35 -22 90 -67 120 -27 19 -44 23 -77 19 -63 -7 -73 -19 -73 -92 0 -34 -3
-65 -7 -68 -13 -13 -33 16 -33 49 0 78 -43 110 -107 80 -43 -21 -70 -77 -54
-114 10 -21 17 -23 49 -20 20 3 44 8 53 12 12 5 18 1 22 -14 4 -15 -2 -24 -23
-35 -75 -39 -150 2 -150 81 0 96 112 179 189 141 26 -13 31 -13 44 0 36 37
136 37 194 2z m415 14 c23 -20 23 -55 1 -75 -10 -8 -47 -32 -83 -52 -98 -54
-98 -54 -80 -66 8 -5 34 -10 58 -10 35 0 49 6 73 29 16 16 29 37 29 46 0 20
19 15 34 -8 23 -36 -70 -117 -136 -117 -82 0 -138 43 -145 112 -9 90 67 158
175 158 38 0 61 -5 74 -17z m-941 -84 c-11 -35 -21 -73 -21 -86 0 -27 24 -40
44 -24 10 9 16 8 26 -4 18 -21 -13 -55 -51 -55 -69 0 -77 91 -20 234 11 27 13
28 28 14 14 -15 14 -22 -6 -79z m-2504 -1524 c4 -4 3 -5 -4 -2 -6 4 -13 2 -15
-5 -3 -8 -6 -6 -10 4 -7 17 15 19 29 3z"/>
<path d="M3551 4127 c-13 -13 -14 -37 -2 -37 6 0 22 -24 38 -52 24 -45 32 -52
53 -50 35 5 36 9 12 35 -12 13 -22 28 -22 34 0 6 -7 16 -15 23 -8 7 -15 20
-15 30 0 21 -34 32 -49 17z"/>
<path d="M2993 4018 c5 -37 2 -47 -21 -72 -22 -24 -24 -28 -7 -21 48 19 61 17
73 -10 16 -35 35 -27 43 16 3 19 8 40 12 46 10 16 -13 52 -30 46 -7 -3 -13
-18 -13 -34 0 -22 -5 -29 -20 -29 -24 0 -27 27 -6 55 12 17 12 21 -3 32 -28
21 -34 15 -28 -29z"/>
<path d="M3142 4040 c0 -14 2 -19 5 -12 2 6 2 18 0 25 -3 6 -5 1 -5 -13z"/>
<path d="M3135 4000 c4 -6 11 -8 16 -5 14 9 11 15 -7 15 -8 0 -12 -5 -9 -10z"/>
<path d="M3710 3900 c0 -5 5 -10 10 -10 6 0 16 -11 22 -25 6 -14 15 -25 20
-25 14 0 9 14 -16 43 -24 28 -36 34 -36 17z"/>
<path d="M1916 3964 c-9 -22 -8 -24 9 -24 8 0 15 9 15 20 0 24 -15 27 -24 4z"/>
<path d="M1760 3915 c0 -8 7 -15 15 -15 8 0 15 7 15 15 0 8 -7 15 -15 15 -8 0
-15 -7 -15 -15z"/>
<path d="M3917 3309 c-10 -6 -30 -12 -45 -13 -19 -2 -28 -10 -30 -26 -3 -20 0
-22 20 -17 12 4 44 7 69 7 52 0 69 18 43 45 -18 17 -32 19 -57 4z"/>
<path d="M1784 2826 c-7 -19 3 -36 22 -36 10 0 14 8 12 22 -4 26 -26 36 -34
14z"/>
<path d="M2333 2423 c-3 -10 -12 -33 -19 -51 l-13 -33 46 -20 c83 -36 88 -34
91 42 l3 66 -38 7 c-56 9 -63 8 -70 -11z"/>
<path d="M3865 2275 c-42 -15 -85 -56 -85 -81 0 -23 20 -17 103 32 98 57 88
86 -18 49z"/>
</g>
</svg>
